# xmcd
#
# Track frame offsets: 
#        150
#        12713
#        26173
#        37297
#        48530
#        61352
#        72817
#        83483
#        97454
#        107473
#        118970
#        133435
#        144641
#        156855
#        169867
#        184637
#        200174
#        214702
#        226266
#        240464
#        250780
#        263776
#        276497
#        285973
#        298450
#
# Disc length: 4142 seconds
#
# Revision: 2
# Processed by: cddbd v1.5.2PL0 Copyright (c) Steve Scherf et al.
# Submitted via: ExactAudioCopy v0.99pb4
#
DISCID=8f102c19
DTITLE=Bo Diddley - Have Guitar Will Tour CD 2
DYEAR=2010
DGENRE=
TTITLE0=Bo Diddley
TTITLE1=I'm A Man
TTITLE2=Diddley Daddy
TTITLE3=Who Do You Love
TTITLE4=Pretty Thing
TTITLE5=Diddy Wah Diddy
TTITLE6=Mona (I Need You Baby)
TTITLE7=Before You Accuse Me
TTITLE8=Hey Bo Diddley
TTITLE9=Say Boss Man
TTITLE10=Say Man
TTITLE11=Bring It To Jerome
TTITLE12=She's Fine, She's Mine
TTITLE13=You Don't Love Me
TTITLE14=I'm Bad
TTITLE15=Cops And Robbers
TTITLE16=Down Home Special
TTITLE17=I'm Looking For A Woman
TTITLE18=O Yeah
TTITLE19=Willie And Lillie
TTITLE20=The Story Of Bo Diddley
TTITLE21=Roadrunner
TTITLE22=Crackin' Up
TTITLE23=Don't Lez Go (Hold On To What You Got)
TTITLE24=Run Diddley Daddy
EXTD=
EXTT0=
EXTT1=
EXTT2=
EXTT3=
EXTT4=
EXTT5=
EXTT6=
EXTT7=
EXTT8=
EXTT9=
EXTT10=
EXTT11=
EXTT12=
EXTT13=
EXTT14=
EXTT15=
EXTT16=
EXTT17=
EXTT18=
EXTT19=
EXTT20=
EXTT21=
EXTT22=
EXTT23=
EXTT24=
PLAYORDER=
